# AST/ASF file generated using VICON BodyLanguage
# -----------------------------------------------
:version 1.10
:name VICON
:units
  mass 1.0
  length 0.45
  angle deg
:documentation
   .ast/.asf automatically generated from VICON data using
   VICON BodyBuilder and BodyLanguage model FoxedUp or BRILLIANT.MOD
:root
   order TX TY TZ RX RY RZ
   axis XYZ
   position 0 0 0  
   orientation 0 0 0 
:bonedata
  begin
     id 1 
     name lhipjoint
     direction 0.537252 -0.787203 0.302774 
     length 2.29576 
     axis 0 0 0  XYZ
  end
  begin
     id 2 
     name lfemur
     direction 0.34202 -0.939693 0  
     length 7.31114  
     axis 0 0 20  XYZ
    dof rx ry rz
    limits (-160.0 20.0)
           (-70.0 70.0)
           (-60.0 70.0)
  end
  begin
     id 3 
     name ltibia
     direction 0.34202 -0.939693 0   
     length 8.36008   
     axis 0 0 20   XYZ
    dof rx
    limits (-10.0 170.0)
  end
  begin
     id 4 
     name lfoot
     direction 0.0969116 -0.266263 0.959016   
     length 2.16704   
     axis -90 7.62852e-016 20   XYZ
    dof rx rz
    limits (-45.0 90.0)
           (-70.0 20.0)
  end
  begin
     id 5 
     name ltoes
     direction 1.53563e-011 -4.21779e-011 1   
     length 1.08338   
     axis -90 7.62852e-016 20   XYZ
    dof rx
    limits (-90.0 20.0)
  end
  begin
     id 6 
     name rhipjoint
     direction -0.588228 -0.754791 0.290308   
     length 2.39434  
     axis 0 0 0  XYZ 
  end
  begin
     id 7 
     name rfemur
     direction -0.34202 -0.939693 0   
     length 7.45207   
     axis 0 0 -20   XYZ
    dof rx ry rz
    limits (-160.0 20.0)
           (-70.0 70.0)
           (-70.0 60.0)
  end
  begin
     id 8 
     name rtibia
     direction -0.34202 -0.939693 0   
     length 8.03565   
     axis 0 0 -20   XYZ
    dof rx
    limits (-10.0 170.0)
 end
 begin
     id 9 
     name rfoot
     direction -0.107009 -0.294004 0.949795   
     length 2.11509  
     axis -90 -7.62852e-016 -20   XYZ
    dof rx rz
    limits (-45.0 90.0)
           (-20.0 70.0)
  end
  begin
     id 10 
     name rtoes
     direction -1.53533e-011 -4.22004e-011 1   
     length 1.05493   
     axis -90 -7.62852e-016 -20   XYZ
    dof rx
    limits (-90.0 20.0)
  end
  begin
     id 11 
     name lowerback
     direction -0.0115208 0.997969 -0.0626515   
     length 2.03153   
     axis 0 0 0   XYZ
    dof rx ry rz
    limits (-20.0 45.0)
           (-30.0 30.0)
           (-30.0 30.0)
  end
  begin
     id 12 
     name upperback
     direction -0.00423475 0.999974 -0.00583614   
     length 2.03619   
     axis 0 0 0   XYZ
    dof rx ry rz
    limits (-20.0 45.0)
           (-30.0 30.0)
           (-30.0 30.0)
  end
  begin
     id 13 
     name thorax
     direction 0.00289429 0.999728 0.0231573   
     length 2.03921   
     axis 0 0 0   XYZ
    dof rx ry rz
    limits (-20.0 45.0)
           (-30.0 30.0)
           (-30.0 30.0)
  end
  begin
     id 14 
     name lowerneck
     direction 0.0188995 0.987777 0.154721   
     length 1.78836   
     axis 0 0 0   XYZ
    dof rx ry rz
    limits (-20.0 45.0)
           (-30.0 30.0)
           (-30.0 30.0)
  end
  begin
     id 15 
     name upperneck
     direction -0.00612612 0.992995 -0.118   
     length 1.81789   
     axis 0 0 0   XYZ
    dof rx ry rz
    limits (-20.0 45.0)
           (-30.0 30.0)
           (-30.0 30.0)
  end
  begin
     id 16
     name head
     direction -0.00420226 0.998397 -0.0564482  
     length 1.82234  
     axis 0 0 0   XYZ
    dof rx ry rz
    limits (-20.0 45.0)
           (-30.0 30.0)
           (-30.0 30.0)
  end
  begin
     id 17 
     name lclavicle
     direction 0.916488 0.396539 0.0529676  
     length 3.51732  
     axis 0 0 0   XYZ
    dof ry rz
    limits (-20.0 10.0)
           (0.0 20.0)
  end
  begin
     id 18 
     name lhumerus
     direction 1 -4.4896e-011 8.36962e-028   
     length 5.45077   
     axis 180 -30 -90   XYZ
    dof rx ry rz
    limits (-60.0 90.0)
           (-90.0 90.0)
           (-90.0 90.0)
  end
  begin
     id 19
     name lradius
     direction 1 -4.48962e-011 3.01407e-027   
     length 3.05488   
     axis 180 -30 -90   XYZ
    dof rx
    limits (-10.0 170.0)
  end
  begin
     id 20
     name lwrist
     direction 1 -4.49002e-011 4.72961e-027   
     length 1.52744   
     axis -2.72261e-015 90 90   XYZ
    dof ry
    limits (-180.0 0.0)
 end
  begin
     id 21 
     name lhand
     direction 1 -4.4899e-011 9.45681e-027   
     length 0.638818   
     axis -6.0311e-015 90 90   XYZ
    dof rx rz
    limits (-90.0 90.0)
           (-45.0 45.0)
  end
  begin
     id 22 
     name lfingers
     direction 1 -4.48871e-011 1.88632e-026   
     length 0.515032   
     axis -1.20625e-014 90 90   XYZ
    dof rx
    limits (0.0 90.0)
  end
  begin
     id 23
     name lthumb
     direction 0.707107 -6.34964e-011 0.707107   
     length 0.739485   
     axis -90 45 6.32835e-014   XYZ
    dof rx rz
    limits (-45.0 45.0)
           (-45.0 45.0)
  end
  begin
     id 24 
     name rclavicle
     direction -0.949427 0.303202 0.0815894   
     length 3.76167  
     axis 0 0 0   XYZ 
    dof ry rz
    limits (-10.0 20.0)
           (-20.0 0.0)
  end
  begin
     id 25 
     name rhumerus
     direction -1 -4.48971e-011 -6.43969e-018  
     length 4.88702   
     axis 180 30 90   XYZ
    dof rx ry rz
    limits (-90.0 60.0)
           (-90.0 90.0)
           (-90.0 90.0)
  end
  begin
     id 26 
     name rradius
     direction -1 -4.48987e-011 5.46662e-027   
     length 3.22603   
     axis 180 30 90   XYZ
    dof rx
    limits (-10.0 170.0)
  end
  begin
     id 27 
     name rwrist
     direction -1 -4.48956e-011 4.72476e-027   
     length 1.61302   
     axis -2.72261e-015 -90 -90   XYZ
    dof ry
    limits (-180.0 0.0)
  end
  begin
     id 28
     name rhand
     direction -1 -4.4889e-011 9.43571e-027   
     length 0.716293   
     axis -6.0311e-015 -90 -90   XYZ
    dof rx rz
    limits (-90.0 90.0)
           (-45.0 45.0)
  end
  begin
     id 29
     name rfingers
     direction -1 -4.48887e-011 1.88701e-026   
     length 0.577494   
     axis -1.20625e-014 -90 -90   XYZ
    dof rx
    limits (0.0 90.0)
  end
  begin
     id 30
     name rthumb
     direction -0.707107 -6.34825e-011 0.707107   
     length 0.829169   
     axis -90 -45 -6.32835e-014   XYZ
    dof rx rz
    limits (-45.0 45.0)
           (-45.0 45.0)
  end
:hierarchy
  begin
    root lhipjoint rhipjoint lowerback
    lhipjoint lfemur
    lfemur ltibia
    ltibia lfoot
    lfoot ltoes
    rhipjoint rfemur
    rfemur rtibia
    rtibia rfoot
    rfoot rtoes
    lowerback upperback
    upperback thorax
    thorax lowerneck lclavicle rclavicle
    lowerneck upperneck
    upperneck head
    lclavicle lhumerus
    lhumerus lradius
    lradius lwrist
    lwrist lhand lthumb
    lhand lfingers
    rclavicle rhumerus
    rhumerus rradius
    rradius rwrist
    rwrist rhand rthumb
    rhand rfingers
  end

#!OML:ASF F:\VICON\USERDATA\INSTALL\rory3\rory3.ASF
:FULLY-SPECIFIED
:DEGREES
232
root -0.360762 10.7348 0.141345 239.192 109.956 213.427
lowerback 38.9154 -2.2064 9.45428
upperback 9.62628 2.39901 3.87414
thorax -7.99365 1.4366 -1.73387
lowerneck -17.4152 -14.1582 -6.43328
upperneck 3.07036 -18.4897 9.9506
head 5.17935 -8.67417 2.14409
rclavicle 3.81667e-014 1.25632e-013
rhumerus 66.1519 -36.3104 -87.4345
rradius 33.3554
rwrist -167.394
rhand -25.8927 -4.70106
rfingers 7.12502
rthumb 0.649423 -34.6798
lclavicle 3.81667e-014 1.25632e-013
lhumerus -37.3505 -4.39996 67.385
lradius 91.2737
lwrist 26.22
lhand -27.2546 31.3119
lfingers 7.12502
lthumb -0.666001 61.2906
rfemur -123.462 -29.3701 28.3871
rtibia 126.788
rfoot -15.6636 28.3754
rtoes -14.7177
lfemur -126.813 43.9203 -62.075
ltibia 129.743
lfoot -5.02619 -31.6808
ltoes -8.03059
233
root -0.360336 10.6806 0.147998 239.423 109.954 213.915
lowerback 39.327 -2.07037 9.1654
upperback 9.49034 2.56163 4.19255
thorax -8.30389 1.48947 -1.31734
lowerneck -17.4258 -14.2922 -6.77786
upperneck 3.2186 -18.5862 9.76232
head 5.24332 -8.73179 2.11558
rclavicle -7.95139e-014 -1.27222e-013
rhumerus 66.7001 -36.5317 -87.6839
rradius 33.0692
rwrist -167.223
rhand -26.1606 -4.7049
rfingers 7.12502
rthumb 0.390679 -34.6843
lclavicle -7.95139e-014 -1.27222e-013
lhumerus -37.7533 -4.26069 67.8276
lradius 90.9405
lwrist 26.8551
lhand -27.3033 30.8455
lfingers 7.12502
lthumb -0.713021 60.824
rfemur -123.924 -29.8047 28.5447
rtibia 127.33
rfoot -15.539 28.6307
rtoes -15.1224
lfemur -127.169 44.2733 -62.3446
ltibia 130.171
lfoot -4.77542 -31.9185
ltoes -7.8401
234
root -0.360602 10.6256 0.156321 239.671 109.972 214.361
lowerback 39.4475 -2.07267 9.2263
upperback 9.51161 2.59026 4.10659
thorax -8.30871 1.50653 -1.4507
lowerneck -17.4844 -14.3437 -6.47617
upperneck 3.20803 -18.7043 9.65258
head 5.21865 -8.792 2.02635
rclavicle -5.725e-014 -5.24792e-014
rhumerus 67.7438 -37.0805 -89.0518
rradius 32.8046
rwrist -166.728
rhand -26.4056 -4.92995
rfingers 7.12502
rthumb 0.154015 -34.9096
lclavicle -5.725e-014 -5.24792e-014
lhumerus -37.7489 -4.3175 67.6557
lradius 90.6037
lwrist 27.5747
lhand -27.1678 30.7523
lfingers 7.12502
lthumb -0.582166 60.7313
rfemur -124.458 -30.1516 28.7322
rtibia 127.862
rfoot -15.5402 28.7704
rtoes -15.4875
lfemur -127.691 44.2438 -62.8392
ltibia 130.4
lfoot -5.5325 -31.617
ltoes -10.9063
235
root -0.362119 10.5718 0.165225 239.732 109.896 214.602
lowerback 39.534 -2.1299 9.5737
upperback 9.60123 2.63375 3.84717
thorax -8.19623 1.5412 -1.91614
lowerneck -17.7692 -14.39 -5.70457
upperneck 3.17064 -18.8977 9.47875
head 5.17561 -8.88173 1.8366
rclavicle -7.31528e-014 -8.42847e-014
rhumerus 68.9318 -37.8559 -90.7162
rradius 32.611
rwrist -166.263
rhand -26.6475 -4.76576
rfingers 7.12502
rthumb -0.0795902 -34.7455
lclavicle -7.31528e-014 -8.42847e-014
lhumerus -37.4053 -4.55112 67.2452
lradius 90.2432
lwrist 28.2413
lhand -26.9992 30.9524
lfingers 7.12502
lthumb -0.419285 60.9317
rfemur -124.903 -30.3961 28.9801
rtibia 128.376
rfoot -15.6203 28.8277
rtoes -15.9339
lfemur -128.32 44.4438 -63.2014
ltibia 130.735
lfoot -5.6932 -31.6485
ltoes -12.2787
236
root -0.362471 10.5184 0.173334 239.763 109.796 214.763
lowerback 39.5794 -2.17124 9.80325
upperback 9.65145 2.67067 3.76492
thorax -8.1318 1.56639 -2.13167
lowerneck -17.8484 -14.4443 -5.46292
upperneck 3.07951 -19.0154 9.50519
head 5.14782 -8.93626 1.79661
rclavicle -9.54166e-015 -3.49861e-014
rhumerus 69.9967 -38.3178 -92.0943
rradius 32.4538
rwrist -165.669
rhand -26.9007 -4.64911
rfingers 7.12502
rthumb -0.324191 -34.6286
lclavicle -9.54166e-015 -3.49861e-014
lhumerus -37.3218 -4.56747 67.093
lradius 89.9365
lwrist 28.8508
lhand -26.9742 31.1997
lfingers 7.12502
lthumb -0.395212 61.1791
rfemur -125.336 -30.628 29.2539
rtibia 128.865
rfoot -15.6174 28.9155
rtoes -15.9138
lfemur -128.966 44.7546 -63.4907
ltibia 131.133
lfoot -5.25134 -31.9111
ltoes -11.6732
237
root -0.361806 10.466 0.177996 240.047 109.803 215.172
lowerback 39.5699 -2.20628 9.78462
upperback 9.68718 2.63228 3.82572
thorax -8.09618 1.55332 -2.04179
lowerneck -17.74 -14.5032 -5.65838
upperneck 2.91821 -19.0523 9.58198
head 5.1086 -8.96155 1.85142
rclavicle -1.17681e-013 -1.47896e-013
rhumerus 71.0849 -38.4391 -93.3369
rradius 32.2439
rwrist -165.009
rhand -27.2446 -4.76739
rfingers 7.12502
rthumb -0.656365 -34.7461
lclavicle -1.17681e-013 -1.47896e-013
lhumerus -37.468 -4.30469 67.1601
lradius 89.6322
lwrist 29.4887
lhand -26.971 31.3278
lfingers 7.12502
lthumb -0.392103 61.3072
rfemur -125.859 -30.9633 29.4431
rtibia 129.347
rfoot -15.4921 29.1074
rtoes -15.5575
lfemur -129.418 44.9392 -63.8274
ltibia 131.482
lfoot -4.92014 -32.0753
ltoes -10.8715
238
root -0.358213 10.4162 0.185166 240.106 109.725 215.466
lowerback 39.7091 -2.25148 9.82785
upperback 9.71321 2.63612 3.93059
thorax -8.11368 1.55716 -1.95275
lowerneck -17.6838 -14.5669 -5.81211
upperneck 2.87553 -19.0991 9.53808
head 5.09813 -8.99258 1.85752
rclavicle 2.54444e-014 -4.92986e-014
rhumerus 72.0015 -38.5985 -94.2854
rradius 32.0232
rwrist -164.689
rhand -27.6185 -4.8415
rfingers 7.12502
rthumb -1.01741 -34.8188
lclavicle 2.54444e-014 -4.92986e-014
lhumerus -37.6373 -4.09867 67.2674
lradius 89.288
lwrist 30.1287
lhand -26.8914 31.2131
lfingers 7.12502
lthumb -0.315177 61.1926
rfemur -126.152 -31.2977 29.6312
rtibia 129.825
rfoot -15.5381 29.2067
rtoes -15.4728
lfemur -129.9 45.412 -64.1683
ltibia 131.868
lfoot -4.63225 -32.4645
ltoes -10.2417
239
root -0.354319 10.3689 0.193521 240.273 109.652 215.855
lowerback 39.8947 -2.33687 9.89303
upperback 9.71835 2.60059 3.98162
thorax -8.16769 1.54151 -1.91695
lowerneck -17.5241 -14.5817 -5.87961
upperneck 2.6934 -19.1012 9.57084
head 5.02623 -9.0044 1.89229
rclavicle 3.81667e-014 1.90833e-014
rhumerus 72.8313 -38.7411 -95.231
rradius 31.7946
rwrist -164.514
rhand -27.8432 -4.94356
rfingers 7.12502
rthumb -1.23448 -34.9197
lclavicle 3.81667e-014 1.90833e-014
lhumerus -37.7884 -3.82347 67.2729
lradius 88.945
lwrist 30.6169
lhand -26.637 31.4676
lfingers 7.12502
lthumb -0.0694463 61.4473
rfemur -126.399 -31.6076 29.7627
rtibia 130.262
rfoot -15.6468 29.3098
rtoes -15.4959
lfemur -130.444 46.0759 -64.6068
ltibia 132.332
lfoot -4.07956 -33.1283
ltoes -8.94524
240
root -0.356086 10.3248 0.203785 240.39 109.599 216.171
lowerback 40.0819 -2.38528 9.85384
upperback 9.74195 2.57203 4.05587
thorax -8.20907 1.53012 -1.80674
lowerneck -17.4103 -14.5914 -5.92596
upperneck 2.55136 -19.1033 9.61296
head 4.97321 -9.01247 1.92257
rclavicle -1.90833e-014 1.59028e-014
rhumerus 73.7057 -38.7776 -96.2455
rradius 31.5902
rwrist -164.131
rhand -27.9025 -4.93367
rfingers 7.12502
rthumb -1.29178 -34.9095
lclavicle -1.90833e-014 1.59028e-014
lhumerus -37.9019 -3.51293 67.2522
lradius 88.6334
lwrist 31.0108
lhand -26.3062 31.7637
lfingers 7.12502
lthumb 0.249977 61.7433
rfemur -126.662 -31.8373 29.923
rtibia 130.674
rfoot -15.7361 29.3589
rtoes -15.7564
lfemur -131.05 46.8813 -65.0003
ltibia 132.885
lfoot -3.16666 -33.8664
ltoes -6.67001
241
root -0.361848 10.283 0.21353 240.516 109.659 216.469
lowerback 40.2198 -2.37581 9.70288
upperback 9.77242 2.55603 4.10876
thorax -8.23263 1.52493 -1.66861
lowerneck -17.3128 -14.6214 -6.08438
upperneck 2.47457 -19.1193 9.71337
head 4.96085 -9.02185 1.97796
rclavicle -1.27222e-014 7.95139e-015
rhumerus 74.403 -38.8154 -97.023
rradius 31.4088
rwrist -163.943
rhand -27.8843 -4.89634
rfingers 7.12502
rthumb -1.27418 -34.8723
lclavicle -1.27222e-014 7.95139e-015
lhumerus -38.0183 -3.22878 67.2422
lradius 88.2587
lwrist 31.335
lhand -26.3502 31.902
lfingers 7.12502
lthumb 0.207501 61.8816
rfemur -127.044 -32.0209 30.0569
rtibia 131.071
rfoot -15.6959 29.3959
rtoes -15.9698
lfemur -131.611 47.4941 -65.3984
ltibia 133.357
lfoot -2.51897 -34.3721
ltoes -4.90624
242
root -0.367298 10.2398 0.224241 240.696 109.718 216.75
lowerback 40.2666 -2.34697 9.56793
upperback 9.80385 2.55198 4.14595
thorax -8.22364 1.52593 -1.55982
lowerneck -17.3362 -14.6732 -6.2415
upperneck 2.52497 -19.169 9.81459
head 5.0092 -9.03909 2.01629
rclavicle 1.59028e-014 -7.95139e-015
rhumerus 75.087 -38.8838 -97.8195
rradius 31.2383
rwrist -163.746
rhand -28.0027 -5.00883
rfingers 7.12502
rthumb -1.38849 -34.9841
lclavicle 1.59028e-014 -7.95139e-015
lhumerus -38.0738 -3.02229 67.2437
lradius 87.8284
lwrist 31.6369
lhand -26.4374 32.516
lfingers 7.12502
lthumb 0.123265 62.4957
rfemur -127.522 -32.1448 30.1751
rtibia 131.456
rfoot -15.591 29.4319
rtoes -16.3312
lfemur -132.21 47.8194 -65.8373
ltibia 133.719
lfoot -2.42522 -34.6633
ltoes -4.86908
243
root -0.369609 10.1976 0.233038 240.719 109.625 216.861
lowerback 40.3456 -2.36284 9.59362
upperback 9.80154 2.5715 4.23797
thorax -8.25273 1.53353 -1.48224
lowerneck -17.3286 -14.7427 -6.39853
upperneck 2.5721 -19.2373 9.85162
head 5.04588 -9.07061 2.03603
rclavicle -6.36111e-015 -2.22639e-014
rhumerus 75.6706 -38.9353 -98.4966
rradius 31.0868
rwrist -163.602
rhand -28.0766 -5.09742
rfingers 7.12502
rthumb -1.45988 -35.0722
lclavicle -6.36111e-015 -2.22639e-014
lhumerus -38.2187 -2.81116 67.3119
lradius 87.4641
lwrist 31.977
lhand -26.4835 32.9549
lfingers 7.12502
lthumb 0.0787902 62.9346
rfemur -127.899 -32.2549 30.3577
rtibia 131.81
rfoot -15.4781 29.5242
rtoes -16.4152
lfemur -132.88 48.0747 -66.1884
ltibia 134.06
lfoot -2.53234 -34.9141
ltoes -5.79894
244
root -0.368985 10.1582 0.236845 240.944 109.502 217.275
lowerback 40.4545 -2.459 9.713
upperback 9.81467 2.53822 4.31616
thorax -8.27004 1.52047 -1.4445
lowerneck -17.2038 -14.8108 -6.55491
upperneck 2.47102 -19.3031 9.93176
head 5.0229 -9.10764 2.08142
rclavicle 3.18055e-015 6.20208e-014
rhumerus 75.9854 -39.013 -98.7756
rradius 30.982
rwrist -163.847
rhand -27.9442 -4.81726
rfingers 7.12502
rthumb -1.33204 -34.7928
lclavicle 3.18055e-015 6.20208e-014
lhumerus -38.3145 -2.69947 67.4373
lradius 87.1752
lwrist 32.5446
lhand -26.6983 33.1912
lfingers 7.12502
lthumb -0.128666 63.1709
rfemur -128.251 -32.6313 30.5734
rtibia 132.151
rfoot -15.3373 29.7305
rtoes -16.5398
lfemur -133.207 48.2351 -66.373
ltibia 134.323
lfoot -2.47683 -35.0641
ltoes -6.02771
